<svg aria-hidden="true" style="position: absolute; width: 0; height: 0; overflow: hidden;" version="1.1" xmlns="http://www.w3.org/2000/svg" xmlns:xlink="http://www.w3.org/1999/xlink">
<defs>
<symbol id="arrow" viewBox="0 0 82 32">
<path d="M81.414 17.414c0.362-0.362 0.586-0.862 0.586-1.414s-0.224-1.052-0.586-1.414l-12.728-12.728c-0.364-0.377-0.874-0.611-1.439-0.611-1.105 0-2 0.895-2 2 0 0.565 0.234 1.074 0.61 1.438l0.001 0.001 11.314 11.314-11.314 11.314c-0.347 0.359-0.561 0.849-0.561 1.389 0 1.105 0.895 2 2 2 0.54 0 1.030-0.214 1.39-0.562l-0.001 0.001 12.728-12.728zM0 18h80v-4h-80v4z"></path>
</symbol>
<symbol id="facebook" viewBox="0 0 32 32">
<path fill="#f8d24e" style="fill: var(--color2, #f8d24e)" d="M16 32c8.837 0 16-7.163 16-16s-7.163-16-16-16-16 7.163-16 16 7.163 16 16 16z"></path>
<path  d="M20.446 15.981h-2.611v9.619h-3.955v-9.619h-1.88v-3.379h1.88v-2.187c0-1.564 0.739-4.014 3.991-4.014l2.929 0.012v3.281h-2.125c-0.348 0-0.839 0.176-0.839 0.922v1.989h2.955l-0.345 3.377z"></path>
</symbol>
<symbol id="linkedin" viewBox="0 0 32 32">
<path d="M12 12h5.535v2.837h0.079c0.77-1.381 2.655-2.837 5.464-2.837 5.842 0 6.922 3.637 6.922 8.367v9.633h-5.769v-8.54c0-2.037-0.042-4.657-3.001-4.657-3.005 0-3.463 2.218-3.463 4.509v8.688h-5.767v-18z"></path>
<path d="M2 12h6v18h-6v-18z"></path>
<path d="M8 7c0 1.657-1.343 3-3 3s-3-1.343-3-3c0-1.657 1.343-3 3-3s3 1.343 3 3z"></path>
</symbol>
<symbol id="mobile" viewBox="0 0 32 32">
<path d="M23 0h-14c-1.65 0-3 1.35-3 3v26c0 1.65 1.35 3 3 3h14c1.65 0 3-1.35 3-3v-26c0-1.65-1.35-3-3-3zM12 1.5h8v1h-8v-1zM16 30c-1.105 0-2-0.895-2-2s0.895-2 2-2 2 0.895 2 2-0.895 2-2 2zM24 24h-16v-20h16v20z"></path>
</symbol>
<symbol id="mail" viewBox="0 0 32 32">
<path d="M16 0c-8.837 0-16 7.163-16 16s7.163 16 16 16 16-7.163 16-16-7.163-16-16-16zM8 8h16c0.286 0 0.563 0.061 0.817 0.177l-8.817 10.286-8.817-10.287c0.254-0.116 0.531-0.177 0.817-0.177zM6 22v-12c0-0.042 0.002-0.084 0.004-0.125l5.864 6.842-5.8 5.8c-0.045-0.167-0.069-0.34-0.069-0.517zM24 24h-16c-0.177 0-0.35-0.024-0.517-0.069l5.691-5.691 2.826 3.297 2.826-3.297 5.691 5.691c-0.167 0.045-0.34 0.069-0.517 0.069zM26 22c0 0.177-0.024 0.35-0.069 0.517l-5.8-5.8 5.865-6.842c0.003 0.041 0.004 0.083 0.004 0.125v12z"></path>
</symbol>
<symbol id="github" viewBox="0 0 32 32">
<path d="M16 0c-8.835 0-16 7.164-16 16 0 7.069 4.584 13.067 10.943 15.183 0.799 0.148 1.057-0.348 1.057-0.769v-2.979c-4.451 0.968-5.377-1.888-5.377-1.888-0.728-1.849-1.777-2.341-1.777-2.341-1.452-0.993 0.111-0.972 0.111-0.972 1.607 0.112 2.452 1.649 2.452 1.649 1.427 2.445 3.743 1.739 4.656 1.329 0.143-1.033 0.557-1.74 1.016-2.139-3.553-0.407-7.289-1.779-7.289-7.908 0-1.748 0.625-3.175 1.648-4.295-0.165-0.404-0.713-2.032 0.156-4.235 0 0 1.344-0.429 4.401 1.64 1.276-0.355 2.644-0.532 4.004-0.539 1.36 0.007 2.729 0.184 4.008 0.539 3.055-2.069 4.396-1.64 4.396-1.64 0.871 2.204 0.323 3.832 0.157 4.235 1.027 1.12 1.647 2.548 1.647 4.295 0 6.145-3.743 7.499-7.305 7.895 0.573 0.496 1.097 1.469 1.097 2.963v4.391c0 0.425 0.256 0.925 1.068 0.768 6.353-2.119 10.932-8.115 10.932-15.181 0-8.836-7.164-16-16-16z"></path>
</symbol>
<symbol id="telegram" viewBox="0 0 32 32">
<path d="M16 0c-8.838 0-16 7.162-16 16s7.162 16 16 16 16-7.163 16-16-7.163-16-16-16zM23.863 10.969l-2.625 12.369c-0.181 0.881-0.712 1.087-1.45 0.681l-4-2.956-1.919 1.869c-0.225 0.219-0.4 0.4-0.8 0.4-0.519 0-0.431-0.194-0.606-0.688l-1.363-4.475-3.956-1.231c-0.856-0.262-0.862-0.85 0.194-1.269l15.412-5.95c0.7-0.319 1.381 0.169 1.113 1.25z"></path>
</symbol>
<symbol id="arrow-right" viewBox="0 0 32 32">
<path d="M8.51 3.254c-0.326 0.376-0.51 0.886-0.51 1.417s0.183 1.041 0.51 1.417l8.62 9.924-8.62 9.924c-0.317 0.378-0.493 0.884-0.489 1.41s0.187 1.029 0.51 1.4 0.76 0.583 1.216 0.587c0.457 0.005 0.896-0.198 1.225-0.563l9.851-11.341c0.326-0.376 0.51-0.886 0.51-1.417s-0.183-1.041-0.51-1.417l-9.851-11.341c-0.327-0.376-0.769-0.587-1.231-0.587s-0.905 0.211-1.231 0.587z"></path>
</symbol>
<symbol id="burger" viewBox="0 0 32 32">
<path d="M26.733 14h-21.466c-0.7 0-1.267 0.425-1.267 0.95v0.1c0 0.525 0.567 0.95 1.267 0.95h21.466c0.7 0 1.267-0.425 1.267-0.95v-0.1c0-0.525-0.567-0.95-1.267-0.95zM26.733 20h-21.466c-0.7 0-1.267 0.425-1.267 0.95v0.1c0 0.525 0.567 0.95 1.267 0.95h21.466c0.7 0 1.267-0.425 1.267-0.95v-0.1c0-0.525-0.567-0.95-1.267-0.95zM26.733 8h-21.466c-0.7 0-1.267 0.425-1.267 0.95v0.1c0 0.525 0.567 0.95 1.267 0.95h21.466c0.7 0 1.267-0.425 1.267-0.95v-0.1c0-0.525-0.567-0.95-1.267-0.95z"></path>
</symbol>
<symbol id="close" viewBox="0 0 32 32">
<path d="M18.3,16L31.5,2.8c0.2-0.3,0.4-0.6,0.4-1c0-0.9-0.7-1.6-1.6-1.6c-0.4,0-0.8,0.1-1,0.4l0,0L16,13.7L2.8,0.5
	C2.6,0.2,2.1,0,1.7,0C0.8,0,0.1,0.7,0.1,1.6c0,0.5,0.2,0.9,0.5,1.2l0,0L13.8,16L0.6,29.2C0.2,29.5,0,29.9,0,30.4
	C0,31.3,0.7,32,1.6,32c0.5,0,0.9-0.2,1.2-0.6l0,0L16,18.2l13.2,13.2c0.3,0.2,0.6,0.4,1,0.4c0.9,0,1.6-0.7,1.6-1.6
	c0-0.4-0.1-0.8-0.4-1l0,0L18.3,16L18.3,16z"/>
</symbol>
<symbol id="logo" viewBox="0 0 34 32">
<path  d="M17.412 14.169c1.636-4.385-1.75-6.784-3.994-8.363-0.429-0.321-0.858-0.623-1.205-0.898-0.607-0.508-1.065-1.176-1.31-1.939l-0.008-0.030c-0.12-0.37-0.189-0.795-0.189-1.237 0-0.4 0.057-0.787 0.162-1.153l-0.007 0.029c0.010-0.036 0.016-0.078 0.016-0.12 0-0.133-0.057-0.253-0.149-0.336l-0-0c-0.082-0.075-0.193-0.122-0.314-0.122-0.057 0-0.111 0.010-0.162 0.029l0.003-0.001c-0.755 0.295-1.458 0.709-2.081 1.225-0.592 0.454-1.070 1.025-1.404 1.682l-0.013 0.028c-0.32 0.627-0.508 1.368-0.51 2.152v0.001c-0.424 0.332-0.791 0.711-1.1 1.133l-0.011 0.016c-0.515 0.687-0.824 1.553-0.824 2.492 0 0.070 0.002 0.141 0.005 0.21l-0-0.010c-0.671 0.609-1.183 1.381-1.475 2.254l-0.011 0.038c-0.165 0.489-0.26 1.052-0.26 1.637 0 0.382 0.041 0.755 0.118 1.114l-0.006-0.035c-0.273 0.164-0.485 0.411-0.602 0.704-0.064 0.157-0.102 0.339-0.102 0.529 0 0.14 0.020 0.275 0.058 0.402l-0.003-0.010c0.087 0.304 0.272 0.571 0.527 0.761s0.567 0.292 0.886 0.289h0.030v2.493c0 0.253 0.102 0.496 0.283 0.675s0.427 0.279 0.683 0.279h0.751l1.223 10.473c0.025 0.233 0.137 0.449 0.313 0.605 0.178 0.156 0.406 0.243 0.644 0.243h5.089c0.238-0.001 0.466-0.087 0.644-0.244s0.29-0.371 0.317-0.604l1.223-10.473h0.751c0.256 0 0.501-0.1 0.683-0.279s0.282-0.422 0.282-0.675v-2.493h0.031c0 0 0 0 0 0 0.403 0 0.768-0.162 1.034-0.424l-0 0c0.274-0.27 0.429-0.639 0.429-1.022 0-0.005 0-0.011 0-0.017 0-0.398-0.164-0.757-0.429-1.014l-0-0-0.013 0.005zM6.399 6.214c0.619 2.294 3.004 3.197 5.179 4.004 0.070 0.043 0.154 0.068 0.244 0.068 0.197 0 0.366-0.121 0.436-0.292l0.001-0.003c0.020-0.049 0.031-0.107 0.031-0.167 0-0.154-0.076-0.291-0.194-0.374l-0.001-0.001c-0.053-0.038-0.116-0.066-0.185-0.078l-0.003-0c-2.342-0.878-4.552-1.696-4.72-4.041-0.005-0.070-0.007-0.152-0.007-0.234 0-0.596 0.134-1.16 0.374-1.665l-0.010 0.023c0.284-0.6 0.694-1.099 1.199-1.48l0.010-0.007c0.307-0.254 0.65-0.49 1.012-0.694l0.035-0.018c-0.011 0.132-0.018 0.286-0.018 0.441s0.006 0.309 0.019 0.461l-0.001-0.020c0.050 0.672 0.235 1.327 0.547 1.927 0.324 0.616 0.748 1.135 1.255 1.556l0.008 0.007c0.356 0.301 0.798 0.61 1.287 0.941 1.129 0.801 2.411 1.696 3.226 2.908 0.509 0.718 0.814 1.612 0.814 2.576 0 0.623-0.127 1.217-0.357 1.756l0.011-0.029h-1.897c-3.908 0.001-8.4-1.068-9.289-4.061-0.083-0.28-0.131-0.602-0.131-0.936 0-0.338 0.049-0.664 0.141-0.972l-0.006 0.024c0.19-0.638 0.54-1.179 1.005-1.595l0.003-0.003-0.021-0.021zM9.917 20.669l1.433 1.416-1.433 1.417-1.433-1.425 1.433-1.408zM13.204 24.388l-1.185 1.17-1.433-1.417 1.433-1.412 1.244 1.225-0.060 0.432zM9.917 27.636l-1.434-1.417 1.433-1.417 1.433 1.417-1.433 1.417zM9.261 24.15l-1.433 1.417-1.193-1.179-0.051-0.424 1.244-1.225 1.433 1.412zM7.167 26.219l-0.287 0.284-0.073-0.645 0.36 0.361zM7.017 27.67l0.811-0.802 1.574 1.569c0.008 0.031 0.018 0.063 0.030 0.092h-2.317l-0.099-0.86zM12.011 26.868l0.811 0.801-0.098 0.848h-2.382l1.669-1.65zM12.955 26.504l-0.288-0.284 0.365-0.361-0.077 0.645zM13.384 22.797l-0.717-0.721 0.91-0.899-0.193 1.62zM12.006 21.432l-1.36-1.34h2.72l-1.36 1.34zM7.823 21.432l-1.359-1.34h2.72l-1.36 1.34zM12.457 30.49h-5.084c-0.016-0.002-0.028-0.014-0.030-0.030l-0-0-0.121-1.018h5.389l-0.116 1.018c-0.002 0.017-0.017 0.030-0.034 0.030-0 0-0 0-0 0v0h-0.004zM16.391 15.716h-1.493c-0.013-0.001-0.028-0.002-0.043-0.002-0.121 0-0.232 0.046-0.316 0.12l0-0c-0.094 0.085-0.153 0.207-0.153 0.343 0 0.067 0.014 0.131 0.040 0.189l-0.001-0.003c0.054 0.119 0.154 0.21 0.277 0.251l0.003 0.001c0.062 0.021 0.128 0.028 0.192 0.021h0.533v2.493c-0.002 0.017-0.017 0.030-0.034 0.030-0 0-0 0-0 0v0h-10.971c-0 0-0 0-0 0-0.017 0-0.032-0.013-0.034-0.030l-0-0v-2.493h8.499c0.12-0.012 0.225-0.067 0.301-0.149l0-0c0.076-0.082 0.123-0.192 0.123-0.313 0-0.241-0.186-0.439-0.423-0.458l-0.002-0h-9.439c-0.014 0.001-0.030 0.002-0.046 0.002-0.215 0-0.401-0.127-0.486-0.31l-0.001-0.003c-0.029-0.062-0.045-0.135-0.045-0.212 0-0.154 0.067-0.292 0.173-0.387l0-0c0.094-0.085 0.22-0.137 0.357-0.137 0.017 0 0.034 0.001 0.051 0.002l-0.002-0h0.974c0.12-0.012 0.225-0.067 0.301-0.149l0-0c0.075-0.082 0.121-0.191 0.121-0.311s-0.046-0.23-0.122-0.311l0 0c-0.076-0.083-0.182-0.138-0.3-0.149l-0.002-0h-0.858c-0.051-0.253-0.079-0.544-0.079-0.841 0-0.392 0.050-0.773 0.145-1.135l-0.007 0.031c0.174-0.671 0.477-1.255 0.883-1.751l-0.006 0.008c0.301 0.924 1.073 2.188 3.004 3.193 1.815 0.937 4.218 1.416 7.14 1.416h1.716c0.014-0.001 0.031-0.002 0.048-0.002 0.138 0 0.264 0.052 0.36 0.138l-0-0c0.106 0.096 0.173 0.235 0.174 0.389v0c0 0.154-0.067 0.292-0.173 0.388l-0 0c-0.094 0.085-0.22 0.137-0.357 0.137-0.017 0-0.035-0.001-0.052-0.002l0.002 0h0.031zM19.817 27.915l-0.343 0.526 0.007 0.005 0.336-0.531zM23.514 28.093l0.629-0.014-0.016-0.727-0.718 0.122 0.106 0.62zM23.557 30.027l0.16 0.609 0.48-0.127-0.011-0.496-0.629 0.014zM18.705 30.12l0.142-0.613h-0.004l-0.138 0.613zM16.31 29.051l0.407-0.479-0.001-0.001-0.405 0.48zM15.445 27.086l0.629 0.003v-0.003h-0.629zM15.746 25.71l-0.565-0.277v0.001l0.565 0.277zM17.675 24.065l0.223 0.587h0.003l-0.225-0.587zM23.853 23.905l0.627 0.049 0.041-0.531-0.517-0.128-0.151 0.61zM23.699 25.876l-0.117 0.619 0.69 0.13 0.055-0.7-0.627-0.049zM22.022 25.070c-0.944 0-1.737 0.1-2.317 0.356-0.297 0.13-0.567 0.314-0.764 0.574-0.187 0.245-0.299 0.556-0.299 0.893 0 0.006 0 0.011 0 0.017v-0.001h1.257c0-0.073 0.018-0.114 0.045-0.149 0.033-0.043 0.107-0.111 0.267-0.182 0.338-0.149 0.92-0.249 1.811-0.249v-1.259zM18.642 26.908c0 0.647 0.29 1.18 0.832 1.535l0.687-1.054c-0.187-0.122-0.261-0.26-0.261-0.481h-1.259zM19.482 28.447c0.513 0.325 1.191 0.448 1.951 0.448v-1.259c-0.656 0-1.055-0.111-1.279-0.252l-0.673 1.063zM21.433 28.895c0.747 0 1.476-0.060 2.187-0.181l-0.21-1.24c-0.64 0.109-1.299 0.164-1.977 0.164v1.257zM22.886 28.107l0.043 1.934 1.257-0.028-0.043-1.934-1.257 0.028zM23.398 29.419c-0.72 0.189-1.513 0.287-2.383 0.287v1.258c0.964 0 1.866-0.107 2.702-0.328l-0.32-1.216zM21.015 29.706c-0.889 0-1.607-0.070-2.168-0.199l-0.282 1.226c0.684 0.157 1.505 0.231 2.451 0.231v-1.258zM18.844 29.507c-0.601-0.135-1.034-0.277-1.323-0.419l-0.553 1.131c0.415 0.203 0.956 0.371 1.6 0.515l0.275-1.227zM17.521 29.088c-0.306-0.148-0.57-0.32-0.809-0.521l0.006 0.005-0.813 0.959c0.314 0.267 0.671 0.495 1.065 0.687l0.552-1.13zM16.718 28.571c-0.428-0.361-0.647-0.833-0.644-1.482l-1.258-0.006c-0.005 0.989 0.353 1.828 1.089 2.449l0.811-0.961zM16.074 27.086c0-0.423 0.083-0.785 0.237-1.099l-1.129-0.553c-0.247 0.505-0.366 1.060-0.366 1.653h1.258zM16.31 25.988c0.287-0.582 0.791-1.033 1.587-1.335l-0.446-1.175c-1.038 0.394-1.819 1.040-2.27 1.956l1.129 0.555zM17.9 24.651c0.836-0.321 1.771-0.486 2.808-0.486v-1.257c-1.173 0-2.261 0.186-3.259 0.57l0.451 1.174zM20.708 24.165c1.059 0 2.055 0.118 2.994 0.35l0.302-1.22c-0.969-0.246-2.082-0.387-3.228-0.387-0.024 0-0.048 0-0.072 0h0.004v1.257zM23.226 23.856l-0.154 1.972 1.254 0.097 0.154-1.971-1.254-0.098zM23.816 25.259c-0.654-0.124-1.253-0.19-1.793-0.19v1.259c0.442 0 0.961 0.053 1.559 0.166l0.235-1.235zM29.953 26.263l-0.004 0.629 0.639 0.004-0.007-0.639-0.628 0.007zM29.683 25.446l-0.428 0.461 0.006 0.005 0.422-0.466zM28.116 25.508l0.436 0.454 0.004-0.004-0.44-0.449zM27.735 26.251l-0.621-0.102-0.119 0.727 0.737 0.004 0.004-0.629zM32.36 29.604l0.38 0.501 0.226-0.171 0.021-0.283-0.627-0.047zM31.002 30.108l-0.135-0.614-0.004 0.001 0.139 0.614zM26.286 29.936l-0.215 0.591 0.005 0.002 0.21-0.593zM25.211 29.365l-0.39 0.493 0.008 0.006 0.383-0.498zM24.493 28.462l-0.564 0.279 0.001 0.003 0.562-0.282zM25.23 24.648v0zM30.978 23.966l0.252-0.576-0.006-0.003-0.245 0.579zM32.422 25.293l-0.566 0.275 0.001 0.004 0.565-0.279zM32.667 26.392l0.627 0.046 0.001-0.023v-0.023h-0.629zM32.593 27.405l-0.003 0.629 0.587 0.003 0.043-0.586-0.627-0.046zM27.612 27.381l0.004-0.629-0.821-0.004 0.209 0.794 0.608-0.161zM28.325 28.259l-0.309 0.548 0.002 0.001 0.307-0.549zM32.145 28.044v-0.629h-0.126l-0.116 0.048 0.242 0.58zM32.476 28.044l0.627 0.047 0.050-0.676h-0.678v0.629zM30.581 26.256c-0.005-0.455-0.11-0.943-0.476-1.276l-0.846 0.932c-0.007-0.007 0.007 0.001 0.026 0.055 0.018 0.058 0.037 0.154 0.038 0.302l1.258-0.014zM30.11 24.986c-0.33-0.306-0.763-0.407-1.189-0.407v1.257c0.245 0 0.32 0.059 0.334 0.071l0.855-0.921zM28.921 24.578c-0.469 0-0.904 0.146-1.244 0.48l0.88 0.899c0.069-0.068 0.17-0.121 0.365-0.121v-1.259zM27.681 25.055c-0.295 0.284-0.499 0.661-0.565 1.084l-0.001 0.011 1.241 0.204c0.020-0.155 0.092-0.29 0.196-0.391l0-0-0.871-0.908zM27.732 26.88l2.217 0.012 0.007-1.258-2.217-0.012-0.007 1.258zM31.98 29.103c-0.138 0.105-0.474 0.25-1.113 0.391l0.27 1.228c0.664-0.146 1.232-0.336 1.602-0.617l-0.759-1.003zM30.864 29.494c-0.609 0.138-1.195 0.206-1.759 0.206v1.257c0.664 0 1.344-0.080 2.037-0.237l-0.277-1.227zM29.105 29.7c-0.593 0-1.081-0.028-1.47-0.081l-0.168 1.247c0.462 0.063 1.010 0.092 1.638 0.092v-1.259zM27.635 29.619c-0.428-0.059-0.813-0.156-1.18-0.289l0.040 0.013-0.419 1.186c0.399 0.147 0.869 0.265 1.354 0.333l0.037 0.004 0.168-1.247zM26.5 29.345c-0.346-0.122-0.646-0.284-0.915-0.486l0.009 0.006-0.765 0.998c0.358 0.274 0.775 0.494 1.243 0.663l0.429-1.182zM25.601 28.871c-0.228-0.186-0.412-0.416-0.541-0.679l-0.005-0.012-1.125 0.562c0.219 0.443 0.519 0.815 0.884 1.11l0.006 0.005 0.781-0.986zM25.056 28.183c-0.132-0.267-0.211-0.612-0.211-1.054h-1.257c0 0.59 0.105 1.134 0.341 1.611l1.127-0.558zM24.845 27.129c0-0.442 0.080-0.833 0.231-1.18l-1.154-0.501c-0.211 0.484-0.334 1.047-0.334 1.639 0 0.015 0 0.029 0 0.044l-0-0.002h1.258zM25.076 25.948c0.159-0.366 0.353-0.636 0.572-0.831l-0.837-0.94c-0.378 0.336-0.671 0.767-0.889 1.269l1.153 0.501zM25.648 25.117c0.676-0.602 1.707-0.952 3.193-0.952v-1.257c-1.668 0-3.044 0.391-4.030 1.271l0.837 0.939zM28.841 24.165c0.666 0 1.295 0.127 1.892 0.38l0.491-1.158c-0.696-0.303-1.507-0.479-2.359-0.479-0.008 0-0.016 0-0.024 0h0.001v1.257zM30.726 24.543c0.557 0.243 0.917 0.587 1.129 1.025l1.131-0.55c-0.36-0.741-0.962-1.281-1.756-1.628l-0.503 1.153zM31.857 25.572c0.118 0.238 0.181 0.508 0.181 0.821h1.257c0-0.489-0.1-0.953-0.311-1.378l-1.128 0.557zM32.040 26.347l-0.074 1.013 1.254 0.091 0.074-1.013-1.254-0.091zM32.597 26.777l-4.981-0.025-0.006 1.258 4.981 0.024 0.006-1.258zM27.004 27.541c0.147 0.558 0.506 0.98 1.011 1.266l0.619-1.095c-0.249-0.141-0.364-0.304-0.414-0.491l-1.216 0.32zM28.018 28.808c0.511 0.285 1.148 0.4 1.861 0.4v-1.258c-0.597 0-0.996-0.099-1.247-0.24l-0.614 1.098zM29.879 29.207c0.765 0 1.605-0.207 2.508-0.583l-0.484-1.161c-0.809 0.336-1.479 0.486-2.025 0.486v1.258zM32.145 28.673h0.331v-1.257h-0.331v1.257zM31.849 27.997l-0.117 1.56 1.254 0.094 0.117-1.56-1.254-0.094z"></path>
</symbol>
</defs>
</svg>
